<svg width="1200" height="1200" xmlns="http://www.w3.org/2000/svg" xmlns:xlink="http://www.w3.org/1999/xlink" version="1.1"><g transform="scale(12.966800764097039) translate(0.8627147144741478, -1.8989825778537313)">                        <g fill="#ff9999"><metadata xmlns="http://www.w3.org/2000/svg"><!--?xpacket begin="&;" id="W5M0MpCehiHzreSzNTczkc9d"?--><x:xmpmeta xmlns:x="adobe:ns:meta/" x:xmptk="Adobe XMP Core 5.3-c011 66.145661, 2012/02/06-14:56:27        "/><!--?xpacket end="w"?--></metadata><g xmlns="http://www.w3.org/2000/svg"><g><path d="M86.899,45.656c-0.328-0.622-1.004-0.734-1.598-0.831c-0.097-0.014-0.203-0.028-0.3-0.049    c-0.858-0.21-6.812-4.321-12.479-10.288c-4.872-5.138-10.868-6.742-15.251-7.915c-0.844-0.223-1.633-0.439-2.344-0.656    c-0.991-0.3-2.094-0.454-3.274-0.454c-3.727,0-8.123,1.598-10.224,3.727c-0.782,0.789-1.312,1.871-1.675,2.987    c-0.739-2.568-2.079-5.82-4.48-8.857c-4.216-5.311-10.992-9.024-16.485-9.024c-1.207,0-2.331,0.175-3.35,0.524    c-3.386,1.159-5.745,2.373-7.643,3.35c-1.277,0.656-2.282,1.173-3.19,1.466c-0.453,0.139-0.754,0.509-0.83,1.019    c-0.363,2.617,7.936,14.21,13.317,17.762c0.872,0.58,1.849,1.131,2.875,1.633c-2.437,2.416-4.098,6.491-3.406,13.603l0.188,1.92    c1.689,17.335,2.631,25.042,4.579,26.047c0.559,0.279,1.18,0.426,1.85,0.426c1.976,0,4.028-1.271,4.983-3.093    c1.054-1.997,5.988-5.737,9.59-6.826c3.825-1.152,17.134-10.029,17.93-13.478c1.214-0.013,2.191-0.119,2.868-0.188    c0.308-0.027,0.531-0.056,0.67-0.056l0.363,0.028c0.517,0.035,1.298,0.09,2.31,0.09c2.785,0,5.527-0.425,8.138-1.263    c4.92-1.563,15.718-7.643,16.688-9.722C86.955,47.023,87.235,46.27,86.899,45.656z M17.86,37.252    C12.989,34.035,4.99,22.826,5.144,20.927c0.984-0.329,2.01-0.858,3.294-1.515c1.857-0.956,4.167-2.143,7.454-3.273    c0.872-0.292,1.85-0.447,2.896-0.447c5.095,0,11.418,3.497,15.39,8.501c3.267,4.118,4.446,8.752,4.871,11.209    c-3.615-1.327-9.093-3.358-13.058-4.963c0,0-3.078-5.144-4.739-6.979l-1.647-1.816c0.265,0.406,4.501,6.973,5.396,8.39    c-1.208-0.509-2.22-0.956-2.918-1.298c-2.114-1.039-3.328-2.094-4.39-3.015c-1.145-0.991-2.122-1.842-3.846-2.457    c-3.287-1.18-5.5-1.396-5.59-1.41c0,0,2.436,1.019,5.36,2.067c1.591,0.572,2.533,1.381,3.622,2.323    c1.095,0.957,2.338,2.039,4.537,3.12c1.5,0.747,4.432,1.933,7.643,3.169c-0.894,0.551-2.869,1.542-5.012,0.928    c-2.986-0.858-5.144-1.64-5.144-1.64c0.077,0.055,1.828,1.417,4.956,2.31c0.865,0.251,1.702,0.272,2.463,0.167    c1.758-0.245,3.113-1.145,3.531-1.459c3.12,1.201,6.408,2.416,8.809,3.295c-0.021,0.209-0.035,0.397-0.042,0.565    c-0.014-0.028-0.042-0.049-0.063-0.077c-0.747-0.81-3.461-0.9-4.592-0.9c-1.292,0-3.35,0.104-5.856,0.593    c-2.073,0.405-4.927,0.957-7.349,2.75C19.94,38.509,18.831,37.895,17.86,37.252z M39.118,38.602    c0.145,0.075,0.943,0.529,0.943,0.529c0.02,0.035-0.567,0.927-0.894,1.43c-0.258,0.342-0.538,0.712-0.831,1.088    c-0.237,0.293-0.481,0.594-0.739,0.894c-0.58,0.685-1.215,1.369-1.863,1.948c-0.81-0.063-2.806-0.148-4.935,0.272    c-1.674,0.327-3.468,1.207-4.543,1.73c-0.196,0.098-0.377,0.188-0.523,0.259c0.405-0.112,3.713-1.013,5.2-1.306    c1.605-0.321,3.161-0.335,4.125-0.293c-1.124,1.195-2.422,2.995-3.595,4.935c-0.299,0.007-2.352,0.126-4.138,1.495    c-3.805,2.902-5.836,5.192-6.044,6.784c0,0,1.884-2.856,6.428-6.324c1.199-0.929,2.617-1.124,3.321-1.214    c-1.438,2.484-2.589,5.109-2.854,6.916c-0.384,2.604-2.841,10.853-4.307,15.781c-0.635,2.157-1.096,3.706-1.208,4.167    c-0.265,1.145,0.203,2.326,0.531,2.96c0.244,0,0.496-0.028,0.747-0.085c-0.251-0.438-0.844-1.633-0.593-2.723    c0.097-0.432,0.586-2.058,1.194-4.118c1.138-3.824,2.701-9.073,3.615-12.673c0.67,0.362,3,1.758,3.455,3.664    c0.537,2.254,0.475,4.278,0.475,4.278c0.028-0.076,0.796-1.955,0.202-4.445c-0.572-2.386-3.51-3.964-3.951-4.194    c0.252-1.047,0.44-1.913,0.531-2.513c0.369-2.533,2.694-6.924,4.927-10.022c0.677,0.921,2.694,3.79,3.308,5.563    c0.748,2.142,1.702,7.161,1.702,7.161c-0.006-0.21-0.265-5.158-1.039-7.385c-0.706-2.037-3.036-5.255-3.539-5.932    c0.412-0.545,2.1-2.324,3.427-3.776c0.237-0.251,0.46-0.503,0.663-0.726c0.272-0.307,0.509-0.572,0.691-0.788    c0.056-0.077,0.112-0.14,0.161-0.202c0.412,0.3,1.082,0.796,1.78,1.423c0.118,0.104,0.244,0.216,0.363,0.336    c0.014,0.007,0.035,0.027,0.049,0.042c0.042,0.041,0.09,0.083,0.133,0.125c0.349,0.335,0.691,0.698,1.004,1.082    c1.34,1.641,2.716,4.265,2.716,4.265c-0.105-0.92-0.782-3.008-2.178-4.704c-0.447-0.551-0.956-1.061-1.451-1.515    c-0.146-0.132-0.293-0.265-0.433-0.384c-0.125-0.104-0.251-0.209-0.37-0.314c-0.028-0.014-0.048-0.035-0.07-0.056    c-0.446-0.363-0.844-0.656-1.13-0.858c0.209-0.28,0.391-0.537,0.558-0.775c0.028-0.035,0.049-0.063,0.07-0.098    c0.091-0.125,0.174-0.244,0.244-0.349c0.09-0.133,0.167-0.251,0.237-0.349c0.049-0.069,0.09-0.139,0.126-0.194    c2.233,1.067,5.485,2.757,8.494,5.702c4.83,4.732,5.27,9.688,5.129,12.13c-0.021,0.265-0.042,0.502-0.062,0.698    c-0.021,0.147-0.042,0.273-0.056,0.384c-0.015,0.09-0.05,0.188-0.105,0.307c-0.509,1.075-2.791,3.358-7.098,6.443    c-3.887,2.776-7.998,5.184-9.771,5.715c-4.069,1.229-9.213,5.228-10.42,7.516c-0.586,1.126-1.766,1.998-2.987,2.262    c0.07,0.112,0.112,0.175,0.112,0.175l-0.58,0.391c-0.014-0.021-0.132-0.195-0.279-0.481c-0.007,0-0.007,0-0.014,0    c-0.447,0-0.851-0.091-1.207-0.273c-1.494-0.893-2.792-14.231-3.832-24.938l-0.189-1.925c-0.677-6.896,0.838-10.644,3.358-12.821    c0.202-0.175,0.411-0.342,0.627-0.496c0.23-0.167,0.468-0.321,0.706-0.453c1.8-1.089,3.93-1.633,6.092-2.059    c2.394-0.468,4.363-0.565,5.591-0.565c1.99,0,3.113,0.251,3.483,0.412c0.313,0.237,0.47,0.388,0.826,0.619    C38.633,38.15,39.116,38.6,39.118,38.602z M85.447,46.946c-0.607,1.305-10.545,7.301-15.835,8.99    c-2.485,0.788-5.081,1.192-7.719,1.192c-0.963,0-1.717-0.055-2.213-0.09l-0.467-0.028c-0.16,0-0.439,0.028-0.81,0.063    c-0.614,0.069-1.5,0.16-2.568,0.18c0.14-2.713-0.377-8.082-5.548-13.141c-2.945-2.875-6.072-4.6-8.354-5.716    c1.619,0.3,3.44,0.649,3.929,0.823c0.216,0.083,0.901,0.433,1.78,0.887c2.52,1.305,6.729,3.49,9.416,4.153    c1.654,0.411,4.201,0.768,6.833,1.074c0.418,0.467,2.379,2.646,3.287,3.315c1.228,0.915,3.413,1.647,3.503,1.674    c0,0-1.947-1.388-3.085-2.232c-0.642-0.475-1.912-1.837-2.666-2.646c1.536,0.167,3.063,0.329,4.418,0.454    c1.186,0.118,2.247,0.224,3.077,0.322c3.155,0.349,8.529,0.655,9.443,0.3l0.007-0.006c0,0-5.45-0.552-9.379-0.992    c-0.831-0.091-1.892-0.203-3.078-0.315c-3.923-0.391-9.29-0.921-12.096-1.604c0.3-0.462,1.256-1.69,2.973-2.067l11.858-1.515    c-0.397,0.021-9.687,0.328-12.004,0.831c-2.282,0.503-3.357,2.254-3.524,2.562c-2.61-0.796-6.358-2.729-8.661-3.93    c-0.691-0.349-1.214-0.621-1.55-0.782c0.886-0.46,2.548-1.249,3.874-1.494c1.919-0.355,9.269-0.739,9.269-0.739l-0.901-0.223    c-1.012-0.259-6.567-0.078-8.494,0.271c-1.87,0.349-4.265,1.653-4.655,1.884c-1.312-0.314-3.992-0.788-4.914-0.949    c0.042-0.119,0.056-0.196,0.056-0.21l0.021-0.083l-0.007-0.084c0-0.035-0.006-0.153-0.028-0.355    c-0.014-0.189-0.042-0.453-0.084-0.775c-0.02-0.139-0.042-0.3-0.069-0.468c0-0.006,0-0.006,0-0.014    c0.195-1.688,0.685-4.021,1.94-5.297c1.612-1.626,5.507-3.309,9.233-3.309c1.041,0,2.004,0.133,2.862,0.392    c0.727,0.223,1.536,0.439,2.394,0.669c4.222,1.131,10.001,2.673,14.601,7.524c5.57,5.87,11.906,10.455,13.226,10.699    c0.119,0.022,0.23,0.042,0.342,0.063c0.189,0.028,0.454,0.069,0.58,0.118C85.65,46.409,85.615,46.597,85.447,46.946z"/></g></g></g>        </g></svg>