<svg width="1200" height="1200" xmlns="http://www.w3.org/2000/svg" xmlns:xlink="http://www.w3.org/1999/xlink" version="1.1"><g transform="scale(11.01666019945171) translate(20.158601284027103, 5.446564583107829)">                        <g fill="#111111"><g xmlns="http://www.w3.org/2000/svg"><path fill-rule="evenodd" clip-rule="evenodd" d="M40.376,1.806c0.428-0.179,1.867-0.743,2.224-1.789   c3.173-0.279,3.125,2.876,2.764,5.619c-1.18,0.538-1.405,0.493-1.095,1.465c-1.635,0.819-5.085,3.848-6.163,3.635   c-1.037,1.169-1.281,2.995-2.452,3.513c0.058,0.695,0.945,0.027,0.849-0.316c0.589,0.061,0.593,0.743,0.895,1.113   c3.007-0.518,5.151-1.094,6.74-3.37c-0.247-4.302,7.449-4.729,6.562-0.221c-2.022,2.494-5.535,4.91-9.027,3.445   c-0.636,0.988-2.655-0.166-3.981,0.421c-0.634,2.678-0.408,5.296,1.371,6.809c4.239-0.735,1.741-7.768,8.065-6.556   c2.539,2.412,0.028,4.738-0.047,7.142c-0.274-0.201-0.448-0.506-0.6-0.836c-0.625,1.109-1.206,1.184-2.539,0.941   c0.003,0.489,0.235,0.732,0.603,0.838c0.736-0.704-0.031-0.276,0.565-0.02c2.07,0.886,4.967-1.64,5.974-0.772   c2.149-1.874,5.705-3.622,7.588-3.685c1.932-0.062,5.108,2.57,2.15,4.498c0.066,0.322,0.293,0.148,0.287-0.011   c-1.203,0.993-2.909,2.04-5.651,1.904c-0.406,0.08-0.071,0.857-0.54,0.877c0.287,0.768,0.608-0.889,1.143-0.039   c-0.045,0.326-0.28,0.167-0.286,0.01c-0.279,0.015-0.211,0.355-0.268,0.579c0.139,0.419,0.364-0.125,0.855-0.03   c-0.215,1.59,5.835,2.765,5.661,6.951c-1.212,2.139-6.134,1.829-5.712-0.093c-1.178,0.333-0.33,0.873-0.287,0.008   c0.133-2.659-1.453-9.528-6.567-8.345c-0.015-0.475-0.029-0.95-0.049-1.428c-0.107-0.603-0.868,0.438-1.118,0.608   c0.117,1.007,0.737-1.032,0.854-0.027c0.403,1.114-0.752,0.767-1.102,1.179c2.805,2.241,5.7,7.878,2.372,11.06   c-4.562,1.437-5.845-4.146-4.493-6.132c0.051-0.067,0.633,0.365,0.594,0.552c0.183-0.818-0.094-2.921,0.415-4.583   c-1.339-1.721-3.641-2.396-5.497-2.099c0.872-1.04-1.331,0.222-2.017-0.506c0.292,2.207,6.361,3.493,2.219,6.496   c-2.507,0.028-3.534-3.043-3.921-6.152c-1.773,3.24-0.742,7.781-1.318,11.756c3.034,1.509,7.21-1.652,8.598,0.852   c0.278-0.017,0.207-0.356,0.267-0.579c0.911,0.526,2.427,1.322,2.683,3.336c-4.16,3.828-7.463-2.282-10.898-1.345   c-0.648-0.137,0.33-0.457-0.313-0.846c-0.653,0.314-0.546,1.333-0.496,2.301c3.659,2.535,4.993,6.347,9.884,5.093   c1.3-2.286,2.088-5.049,5.532-5.329c0.563,0.681,1.138,1.347,1.505,2.234c1.953-0.95,4.594-1.681,7.381-1.391   c1.234-0.62,3.305-4.787,6.445-3.645c0.964,1.331,1.761,2.846,1.607,5.371c-1.525-0.825-0.046-0.264-0.268,0.581   c-0.526,2.044-3.493,0.971-4.505,1.866c-3.178-3.121-4.329-3.372-8.332-1.431c1.559,2.173,5.151,2.176,4.79,6.409   c-0.99,2.531-5.228,5.219-7.36,1.962c-0.265-1.266,0.323-1.725,0.185-2.865c0.89,0.919,0.327,0.152,0.259-0.865   c0.54,0.012,0.23,0.938,0.885,0.825c-0.629-0.984-0.028-0.521,0.54-0.87c-0.054-0.336-0.526-0.225-0.862-0.259   c0.509-0.535,0.601-1.462,0.776-2.314c-1.697-1.663-3.62,0.29-3.393,0.974c-0.355-0.114-0.598-0.344-0.601-0.839   c-1.991,1.962-4.65,1.957-7.674,1.118c0.493,1.178,2.318,4.967,1.955,7.074c0.704-0.269,1.513-0.424,1.453,0.809   c4.772-0.328,7.406,3.393,7.955,7.159c-0.009-0.05-0.276-0.324-0.308-0.562c0.626,5.365-0.665,10.756-0.603,16.018   c-0.327,0.339-0.995,0.355-1.701,0.342c-3.029,5.329-2.802,16.674-8.776,19.148c-1.976-0.166-6.278,2.96-9.405,0.603   c-4.943,0.807-10.19-3.574-13.879-4.957c-0.854-0.221,0.646-0.45,0.245-1.15c-0.808,1.303-1.104-3.604-1.304-4.812   c-0.709-4.243-0.15-9.54-2.078-10.783c-0.385,0.1-0.213,0.722-0.246,1.149c-0.51,0.055-0.611-0.328-1.153-0.247   c0.25-3.317-0.817-1.816-1.011-4.534c0.263,0.211,0.659,0.284,1.153,0.246c0.438-1.705,0.391-5.639,0.094-5.715   c0.409-2.265-0.055-8.073,1.725-8.056c0.019-0.515-0.37-0.59-0.319-1.134c0.584,0.141,0.587,0.839,1.143,0.246   c-0.06-0.321-0.287-0.146-0.28,0.01c0.785-2.203,3.101-2.319,4.716-4.156c-0.084,1.243,1.186-0.865,1.443,0.521   c0.333-0.888,1.141-1.327,1.646-2.055c0.651,0.289,0.55,1.385,1.197,1.672c0.835-0.275-0.674-0.403-0.324-1.128   c1.246,0.07,1.575-0.282,1.106-1.183c0.451-0.04,1.092,0.101,1.131-0.323c1.098,0.451-0.604,0.489-0.542,0.875   c0.533,0.01,1.748,0.005,2.254-0.932c0.283,0.736-0.698,0.882,0.866,0.257c-0.146,0.232-0.283,0.473-0.258,0.864   c0.377-0.199,0.509-0.629,0.53-1.159c0.707,1.557,1.86-0.667,2.037,1.072c0.497-0.838,0.688-0.669,1.4-0.905   c-0.596-2.797-0.65-5.929-1.404-7.664c0.232,0.045,0.295,0.276,0.58,0.265c-0.259-1.746-0.06-2.142-0.411-3.697   c-1.234-2.205-7.079-0.624-7.995-0.018c-0.212,0.816,0.426,0.726,0.33,1.418c1.129-0.126-0.35-0.98,0.829-0.886   c-1.343,2.037,1.556,2.3,2.16,4.784c0.501,2.048-1.181,3.986-3.297,3.826c-3.112-0.241-4.067-5.51-1.48-9.947   c-0.208,0.233-4.744-0.418-3.699,0.409c-0.416,0.891-1.007-0.462-1.169-0.817c-0.741,0.779-1.852,1.217-3.092,1.532   c-1.058,1.473,0.866,3.763,0.458,5.128c-0.431,1.454-1.657,0.915-2.489,2.368c-0.7-0.856-0.174-0.108-1.14,0.037   c-0.546-0.531-0.531-0.207-0.327-1.131c-0.865-0.259-0.483,0.654-0.531,1.161c-0.522-1.86-2.937-2.429-1.893-5.363   c-0.114-0.67-1.012-0.498-0.906-1.398c-2.059,1.07-5.903,4.457-8.197,2.563c-2.359-1.948-0.886-4.216,0.93-6.314   c0.761-0.225,0.572,0.57,0.883,0.825c0.777-0.283-0.592-1.029,0.535-1.157c1.092-0.09,0.11,0.23,0.313,0.843   c0.262-0.216,0.416-0.533,0.541-0.873c2.816,0.627,5.693,3.484,8.982,3.694c-0.097-0.584,0.64-0.263,0.816-1.169   c0.334,0.033,0.256,0.511,0.316,0.844c0.381-0.1,0.212-0.72,0.243-1.149c1.345-0.591,2.85-0.375,3.958-1.277   c-1.217-3.101-0.571-7.444,3.467-7.257c2.246,2.125,1.114,6.188-1.184,7.181c0.259,0.314,0.901-0.1,0.315,0.847   c0.76-0.025,0.587-0.924,1.395-0.907c-0.05,0.236-0.274,0.297-0.266,0.583c3.028-0.475,8.209-0.805,10.833-0.652   c0.58-0.104,0.534-0.79,1.112-0.895c0.881-6.806,1.081-13.572-0.035-17.993c-0.94-0.102-0.819,1.988-1.408,0.62   c-0.004,2.098-2.839,1.903-2.984,4.669c0.225,1.045,1.098,1.387,1.779,1.941c0.142-1.057-1.842-1.359-1.21-1.959   c2.499,2.087,3.847,4.989,3.115,7.608c-7.7,3.706-6.768-4.142-7.385-7.178c-0.495,0.213-0.871,0.343-1.138,0.039   c-2.249,3.509-6.919,5.561-9.55,4.892c-4.592-1.172-2.652-7.839,2.585-8.085c1.27-0.06,2.714,0.63,4.898,1.261   c0.036,0.012-0.367,0.541-0.266,0.581c0.757,0.312,2.577-0.159,4.242-1.286c0.721-3.467-4.643-5.982-4.62-9.842   c0.044-6.578,8.786-3.054,6.954,2.909c-1.75,1.145-2.844,4.192-1.518,5.764c0.067,0.083,0.744-1.32,0.582,0.266   c0.557-0.312,1.447-0.033,1.671-1.199c1.856-0.344,6.781-4.476,3.774-6.697c-1.444-4.194-9.663-6.583-5.554-12.098   c2.637-0.34,3.392,0.768,4.928,2.122c-0.112,0.418-0.25-0.02-0.569,0.02c0.932,2.068,1.5,0.921,1.828,3.366   c0.506-0.704,0.816-0.485,2.263-0.647c-0.11,0.904,0.549,0.988,0.355,1.987C38.011,5.67,39.744,3.061,40.376,1.806z M44.943,1.651   c-4.042-1.799-6.61,4.341-7.433,8.25c1.454-0.034,0.881-1.881,2.262-0.65C41.219,6.514,45.069,7.095,44.943,1.651z M28.384,1.926   c-1.6,3.469,2.924,7.562,5.424,8.383c0.05-3.031-0.334-8.814-4.864-8.689C29.029,2.814,28.823,2.313,28.384,1.926z M35.787,9.672   c0.545-0.605,0.844-2.881,0.159-3.716C34.8,6.939,34.396,8.913,35.787,9.672z M28.104,10.503c-0.381-0.984-1.859-2.335-3.188-1.32   C26.298,8.976,28.27,10.992,28.104,10.503z M23.538,10.658c-0.867,3.287,1.808,5.092,3.095,7.035   c-0.284-2.753,1.372-3.689,1.803-5.774c-0.918-1.395-2.793-2.38-3.785-2.156C25.141,10.407,24.337,10.554,23.538,10.658z    M43.359,13.987c1.337,0.206-0.418-0.727,0.54-0.876c0.114,0.665,0.598,1.16,0.058,1.713c1.752-1.147,2.506-1.057,3.951-1.563   c-0.229-0.054-0.342-0.227-0.309-0.561c0.581,0.456,0.362-0.037,1.145-0.038c0.04-1.134,0.064-1.185,1.078-1.75   c-1.029-0.122,0.02-1.832-1.215-2.244c-0.561,0.64-1.881-0.103-2.272,0.361C45.851,10.058,43.905,12.101,43.359,13.987z    M34.722,11.996c0.132-0.455,1.046-1.569,0.219-2.008c0.005,0.159-0.219,0.332-0.289,0.01c-0.069-0.221-0.022-0.563-0.301-0.562   C34.389,10.635,34.441,11.821,34.722,11.996z M43.351,22.27c1.951-1.124,4.536-1.658,4.121-4.992   C44.59,14.367,42.802,19.226,43.351,22.27z M37.915,21.883c-0.469-0.778-0.408-2.125-1.23-2.529   C36.352,19.997,37.095,21.537,37.915,21.883z M36.849,24.204c-0.539-0.006,0.027-1.223,0.829-0.884   c-0.098-1.179-1.544-0.916-1.783-1.938c0.932-0.144,0.361-1.361-0.057-1.712c-0.547,1.6,0.362,2.882-0.12,4.86   C36.418,24.142,36.616,24.645,36.849,24.204z M41.062,22.062c0.693,0.674,0.515-0.444,1.415-0.333   c-0.062-0.427,0.069-1.058-0.323-1.132C42.13,21.402,40.81,20.998,41.062,22.062z M49.696,24.056   c2.927,0.364,8.958,1.217,11.347-2.384c-0.188-0.586-0.632-0.901-0.905-1.396C55.775,19.554,52.438,23.375,49.696,24.056z    M27.975,23.646c-0.335,0.057-0.812-0.02-0.844,0.313c0.431,0.62,0.68-0.38,0.863,0.259c-0.982,1.823-0.044,3.006-0.379,5.725   c0.948,0.504,1.33,0.952,1.486,1.664c0.863-0.768,1.037,0.397,2.578,0.198c3.086-2.591-1.602-5.96-3.447-9.023   c0.287-0.01,0.347,0.219,0.577,0.267c0.323-0.936-0.93-0.188-0.608-1.123c0.162-0.006,0.318-0.242-0.008-0.285   C28.002,22.442,26.937,23.258,27.975,23.646z M15.945,22.625c-0.106,0.362-0.348,0.597-0.835,0.6   c-0.055,1.425-0.887,2.12-0.733,3.737c4.354,2.977,6.852-1.214,9.327-2.887c-0.298,0.604-0.285,0.616,0.296,0.277   C23.682,23.316,18.772,21.982,15.945,22.625z M41.026,29.49c0.696-0.454,1.271-1.022,1.361-2.046   c-2.101-0.427-2.711-0.637-3.787-2.156C38.938,27.192,39.419,28.942,41.026,29.49z M48.104,36.104   c0.418-0.393,1.228-0.132,1.712-0.057c2.551-2.962,0.571-8.453-2.591-9.052C47.933,29.363,45.507,34.354,48.104,36.104z    M57.196,34.656c2.812-0.759,4.347-0.392,3.621-2.693c-0.707-2.256-5.177-3.075-6.146-4.362   C57.148,28.811,55.311,32.819,57.196,34.656z M19.562,36.786c1.388-1.408,4.41-2.53,2.685-5.232   C19.311,31.109,18.125,34.953,19.562,36.786z M8.258,40.309c-0.59-3.674-6.236-2.129-7.416,0.25   c-0.003-0.156-0.247-0.316-0.288,0.009C1.822,45.098,7.82,40.465,8.258,40.309z M40.443,37.508c0.415,1.424,1.727,1.896,2.66,2.766   c1.172-0.474,3.34-0.014,3.379-1.542C45.64,36.804,41.89,37.123,40.443,37.508z M67.325,38.599   c-2.085-2.574-4.161,1.166-5.626,2.475c1.619,0.831,2.509,2.438,5.211,2.11C68.11,41.7,67.024,40.223,67.325,38.599z    M11.579,45.623c0.976,0.183,1.792-0.101,2.319,1.063c-0.008-0.283-0.018-0.57-0.027-0.854c2.757-0.779,0.644-3.702,0.388-5.441   c-0.119,1.243-1.449,1.263-1.965,0.924c0.155-0.004,0.312-0.242-0.013-0.286C12.435,42.476,11.299,43.354,11.579,45.623z    M23.495,43.221c0.848,1.254-0.31,3.271,0.933,2.255c0.015,0.474,0.031,0.949,0.047,1.425c0.93,0.576,2.623,0.72,3.426-0.115   c-0.565-2.744-1.63-4.958-3.362-6.457C23.768,41.13,24.169,43.442,23.495,43.221z M38.345,51.575   c0.215-2.378,2.926-2.423,2.384-5.509c-0.706,0.039-1.313-1.199-0.306-0.562c-0.955-1.537-2.153-2.818-3.556-3.878   c-0.025,1.745-0.415-1.321-0.856,0.03C37.08,43.669,36.537,49.135,38.345,51.575z M48.098,44.39c2.28-0.19,3.956-1.724,3.592-3.55   C48.525,41.356,49.01,42.231,48.098,44.39z M57.874,46.344c0.438,0.68-0.955-1.172-2.022-0.788   c0.495,2.854-1.684,3.216-1.521,5.763C58.607,52.489,60.366,47.388,57.874,46.344z M39.507,52.106   c-0.02,0.787,0.846,1.367,0.92,1.969c3.31,1.052,3.886-4.521,1.787-6.345C42.057,49.555,39.541,50.328,39.507,52.106z    M31.697,57.798c-1.116,0.259-0.862,0.251-1.992,0.065c-0.087,1.393-2.35,0.754-3.092,1.533c-0.045-0.464,0.434-1.256-0.02-0.57   c-0.441,0.09-0.176,0.633,0.028,0.856c-1.736,0.09-3.255,2.128-5.04,3.026c0.529,1.173-0.572,1.12-0.502,2.018   c-0.044-0.349-0.108-0.674-0.59-0.552c0.118,1.308-0.638,1.795-0.757,2.881c1.117,0.189,0.388,1.804,1.149,0.247   c0.144,1.128-0.609,1.767,0.361,2.273c0.037-0.336,0.442-0.326,0.846-0.315c-0.67,1.81,3.759,1.427,4.387,2.994   c1.857-0.539,3.268,0.965,4.595,0.701c-0.879,0.103-0.843,1.058-1.381,1.475c-0.001-0.534-0.239-0.597-0.579-0.264   c-0.092-2.136-0.169-0.916-0.573,0.019c-1.271-0.199-1.252-1.324-2.594-0.77c0.811-0.749-2.594-0.427-2.055-1.645   c-2.78-0.415-5.087-2.375-7.02-4.902c-0.078,2.699-0.856,5.85,0.525,7.121c0.374,0.271,1.685,0.364,1.769,1.652   c1.823-0.003,2.855,0.152,4.025,0.723c3.788,1.85,7.668,3.167,9.522,2.818c1.581-0.295,4.078,0.763,6,0.086   c-0.037,0.427,0.134,1.047-0.25,1.149c-1.746-0.616-2.784-0.298-3.697,0.412c-0.057-0.336,0.022-0.814-0.314-0.848   c-0.272,0.789-0.232-0.054-1.406,0.617c-0.012-0.284,0.22-0.347,0.264-0.579c-0.573,1.132-1.944-0.988-2.252,0.937   c1.281,0.192,2.238-0.13,2.871,0.47c-0.056,0.226,0.013,0.565-0.262,0.58c-3.83-1.082-10.955-0.833-13.283-4.119   c-0.476-0.679,0.116-0.423-0.301-0.562c0.191,0.065-1.439,0.614-1.429,0.048c-0.215,1.019-0.01,0.703-0.228,1.721   c0.224,0.057,0.565-0.012,0.58,0.268c-0.122,3.826,0.383,12.214,5.352,14.672c5.174,2.098,14.715,5.868,20.836-0.419   c-1.021-4.283,3.899-10.968,2.648-14.656c-0.891,0.793-3.084,1.851-5.087,1.601c0.223,0.056,0.34,0.229,0.303,0.561   c-1.387,0.125-1.648,0.273-2.826,0.951c-0.309-0.254-0.122-1.048-0.884-0.826c-0.151,0.921-4.316,1.01-5.124,0.458   c1.153-0.165,2.832-0.994,3.423-0.115c2.292-1.241,3.362-0.493,5.079-1.885c-0.192,0.006-0.382,0.014-0.572,0.021   c-0.021-0.174-0.054-0.339-0.293-0.277c-0.309,1.246-1.452-0.01-1.97,0.923c-0.069-0.216-0.025-0.562-0.301-0.561   c-0.024,0.351-0.064,0.677-0.553,0.591c-0.013-0.381-0.025-0.761-0.04-1.143c2.883,0.473,4.787-1.374,5.993-0.201   c0-0.394-0.157-0.622-0.316-0.846c1.914,0.236,2.855-1.648,4.252-1.001c0.327-0.891,0.742-1.7,1.056-2.608   c0.586-0.273,0.142,1.941,0.597,0.838c1.524-0.546,3.101-4.036,1.807-5.774c0.009,0.161-0.219,0.333-0.285,0.012   c0.405-0.126,0.47-0.359,0.852-0.03c0.008-0.497-0.088-0.885-0.322-1.131c-0.8,0.529-1.678,0.765-1.388,1.188   c1.234,0.222-0.788,2.785-2.216,2.073c0.944-0.378,1.889-1.061,1.951-1.492c0.085,0.435,0.47,0.026,0.561-0.305   c-1.423,0.335-2.836,1.501-2.479,2.656c-0.761,0.021-1.631,0.162-2.009-0.22c0.103,0.646-0.031,1.075-0.529,1.161   c0.794-0.374-0.944-2.224-0.332-1.417c0.082,0.813,0.082,1.555-0.812,1.456c-0.057-0.335,0.023-0.812-0.315-0.848   c-0.148,1.146-1.52,1.158-2.518,1.514c0.148-0.26,0.757-1.656,0.254-0.866c-0.536,0.05-0.162,0.95-0.824,0.885   c-0.009,0.101-2.489-0.88-1.729-0.512c-0.141,0.414,1.133,0.658,0.312,0.848c-1.489,0.096-1.638-1.447-2.567,0.087   c-0.001-0.493-0.243-0.726-0.6-0.839c-0.03,0.337,0.077,0.809-0.253,0.866c-1.135-0.833-2.581,0.7-3.71,0.126   c-0.425-0.217,0.047-0.71-0.314-0.848c-0.078-0.028,0.262,1.664-0.283,0.01c-0.242-0.715-0.252,0.784-0.546,0.877   c-0.767,0.238-1.556-0.553-2.014-0.506c0.813-0.683,0.384-0.93,1.09-1.465c0.775,0.455,2.538-0.15,2.884,0.761   c0.249-1.059,2.163-0.556,3.109-0.962c-0.306,0.421-0.284,0.704,0.312,0.846c0.037-0.337-0.075-0.808,0.26-0.866   c0.295,0.384,0.463-0.139,0.873,0.544c0.842-0.902,2.803-0.076,3.966-0.992c0.012,0.286-0.22,0.346-0.265,0.58   c1.175-0.331,3.154-1.896,4.801-1.589c0.134-1.085,1.189-1.47,1.662-1.486c-0.806-0.595,1.052-1.028,0.79-2.024   c-0.19-0.489-1.352,0.064-1.445-0.524c0.049-1.246,0.25-2.343,0.455-3.441c-1.05,0.062-1.029-1.397-0.344-1.704   c1.26,2.803,0.235,2.637,1.59,4.803c0.675-4.091-2.321-4.731-1.667-7.084c0.635,0.626-0.323,1.268,0.629,1.691   c1.749-0.775,1.254,2.879,2.972,3.326c0.644-1.038,0.055-1.909,1.041-2.888c0.049-2.797-2.347-3.936-2.747-5.336   c-0.918,0.188-3.262-0.642-4.056-1.576c-0.503-0.062-1.396,0.852-1.712,0.059c0.358-0.715,0.879,0.484,1.135-0.324   c-1.402-0.308-1.146,0.21-1.457-0.809c-0.195,0.547-0.845,0.226-0.259,0.866c-2.138,0.677-5.6-0.737-6.056-1.796   c0.723,0.498,0.224,3.349,2.15,4.497c0.034-0.336-0.077-0.806,0.253-0.865c0.013,0.287,0.021,0.571,0.03,0.856   c0.935,0.321,0.189-0.93,1.123-0.608c-0.379,0.844-0.207,0.329,0.581,0.266c0.265,1.443,1.68-0.081,1.769,1.654   c1.349-0.683,1.411,0.594,1.991-0.355c-0.003,1.2,0.17,0.684,0.576,0.268c0.379,0.827,1.616,0.088,1.497,1.949   c-1.661-0.761-0.418,0.704-0.819,1.171c-0.771-1.113-1.41-3.24-2.919-1.903c-0.688-0.892-4.178-2.78-5.772-1.803   c1.297,2.189,2.079,3.225,2.204,6.21c-3.965,1.176-6.566,0.05-9.935,1.765c-0.05-0.539-0.948-0.168-0.883-0.827   c1.534-1.053,2.304-3.98,3.562-4.406c-0.465-0.815,1.048-2.145,1.323-3.186c-0.859,0.028-1.711,0.057-2.567,0.086L31.697,57.798z    M31.987,57.787c-0.411-1.85,2-0.436,3.079-1.818c-0.505-0.935,0.767-2.594-0.972-3.395c0.714,0.328-2.188,0.692-0.847,0.314   c-1.462,0.411-0.926,0.53-2.273,0.361c-2.443-0.305-10.526,2.922-12.644,6.141c-0.899,1.362-0.975,3.259-1.262,4.898   c0.645,0.489,1.417,3.669,1.521,2.806c-0.145-1.41,0.033-4.204,1.567-4.337c0.012,0.285-0.216,0.345-0.266,0.577   c0.192-0.005,0.382-0.012,0.569-0.016c0.32-0.072,0.434-0.333,0.553-0.59c-0.509-0.244-1.428-0.051-1.732-0.515   c1.024-0.203,1.409-1.004,1.97-0.923c-0.344,0.099-1.011-0.791-0.315-0.846c0.171,1.416,0.607-0.135,0.848-0.314   c0.253,0.638-0.471,1.93,0.038,1.142c0.62,0.028,0.097-1.016,0.239-1.437c1.194-0.302,1.537,0.03,1.958-1.208   c0.123,0.943,1.217-0.794,1.434,0.235c0.027,0.175,0.056,0.337,0.296,0.274c-0.452-0.914,0.038-0.824,0.523-1.443   c1.407,0.444,3.028-1.343,4.252-1.001c0.216,0.062-0.165,0.903,0.31,0.847c-0.188,0.023,0.5-1.922,0.827-0.885   c-0.454,0.581,0.038,0.362,0.038,1.142 M20.608,76.165c0.802,0.049,1.664,1.55,2.312,0.78C22.1,76.918,21.207,75.452,20.608,76.165   z M36.225,56.501c0.559-0.103,0.579,0.366,0.876,0.543c0.699-1.044-1.327-2.783-0.117-3.426c-0.422,0.063-1.055-0.065-1.128,0.325   C36.512,54.226,36.024,55.732,36.225,56.501z M31.921,64.358c2.529-0.198,3.345-1.361,6.25-1.068   c0.173-1.362-0.613-2.008-0.135-3.993c-0.591-0.29-0.469-1.972-1.792-2.225C35.069,59.703,32.933,62.435,31.921,64.358z    M50.613,68.012c-0.166-0.941,0.855-1.843,0.48-2.586c-1.03,1.154-0.285,2.618-1.354,2.046   C50.146,67.525,50.234,67.923,50.613,68.012z M30.494,81.261c0.273-1.331-2.161-1.705-3.5-2.168   c-1.87-0.647-4.079-0.983-5.482-1.527c-0.02-0.173-0.052-0.338-0.292-0.275C22.931,80.356,28.98,79.628,30.494,81.261z"/></g></g>        </g></svg>