<svg width="1200" height="1200" xmlns="http://www.w3.org/2000/svg" xmlns:xlink="http://www.w3.org/1999/xlink" version="1.1"><g transform="scale(1.5253629766177421) translate(-30.15100097656247, -29.63689422607422)">                        <g fill="#111111"><defs xmlns="http://www.w3.org/2000/svg"/><g xmlns="http://www.w3.org/2000/svg"><line class="fil0 str0" x1="136" y1="777" x2="711" y2="777" style="stroke: black; stroke-width: 20; stroke-linecap: round; stroke-linejoin: round; fill: none;"/><path class="fil0 str0" d="M419 675l0 -429c0,0 -7,-57 -30,-74" style="stroke: black; stroke-width: 20; stroke-linecap: round; stroke-linejoin: round; fill: none;"/><path class="fil0 str0" d="M389 172c0,0 7,-105 -149,-103 0,0 36,129 149,103z" style="stroke: black; stroke-width: 20; stroke-linecap: round; stroke-linejoin: round; fill: none;"/><line class="fil0 str0" x1="419" y1="398" x2="461" y2="355" style="stroke: black; stroke-width: 20; stroke-linecap: round; stroke-linejoin: round; fill: none;"/><path class="fil0 str0" d="M461 355c0,0 -27,-130 121,-133 0,0 16,138 -121,133z" style="stroke: black; stroke-width: 20; stroke-linecap: round; stroke-linejoin: round; fill: none;"/><line class="fil0 str0" x1="343" y1="424" x2="419" y2="505" style="stroke: black; stroke-width: 20; stroke-linecap: round; stroke-linejoin: round; fill: none;"/><path class="fil0 str0" d="M343 424c0,0 30,-118 -136,-142 0,0 -12,153 136,142z" style="stroke: black; stroke-width: 20; stroke-linecap: round; stroke-linejoin: round; fill: none;"/><path class="fil0 str0" d="M419 246c0,0 8,-64 31,-69" style="stroke: black; stroke-width: 20; stroke-linecap: round; stroke-linejoin: round; fill: none;"/><path class="fil0 str0" d="M450 177c0,0 -16,-73 94,-54 0,0 -23,79 -94,54z" style="stroke: black; stroke-width: 20; stroke-linecap: round; stroke-linejoin: round; fill: none;"/><path class="fil0 str1" d="M394 738c-8,0 -15,-6 -15,-14 0,-8 7,-15 15,-15 8,0 15,7 15,15 0,8 -7,14 -15,14zm97 -41c-21,-14 -46,-22 -72,-22 -36,0 -69,15 -92,39 -4,-1 -9,-1 -14,-1 -47,0 -88,26 -110,64l39 0c0,-14 12,-26 26,-26 15,0 27,12 27,26l248 0 100 0c-17,-49 -64,-84 -119,-84 -12,0 -23,1 -33,4zm52 80c-11,0 -19,-8 -19,-18 0,-10 8,-19 19,-19 10,0 18,9 18,19 0,10 -8,18 -18,18z" style="stroke: black; stroke-width: 16.93; fill: none;"/><path class="fil1" d="M207 282c0,0 -12,153 136,142 0,0 30,-118 -136,-142z" style="fill: #111111;"/><path class="fil1" d="M240 69c0,0 36,129 149,103 0,0 7,-105 -149,-103z" style="fill: #111111;"/><path class="fil1" d="M544 123c-110,-19 -94,54 -94,54 71,25 94,-54 94,-54z" style="fill: #111111;"/><path class="fil1" d="M582 222c-148,3 -121,133 -121,133 137,5 121,-133 121,-133z" style="fill: #111111;"/><path class="fil1" d="M327 714c-4,-1 -9,-1 -14,-1 -47,0 -88,26 -110,64l39 0c0,-14 12,-26 26,-26 15,0 27,12 27,26l248 0 100 0c-17,-49 -64,-84 -119,-84 -12,0 -23,1 -33,4 -21,-14 -46,-22 -72,-22 -36,0 -69,15 -92,39zm67 24c-8,0 -15,-6 -15,-14 0,-8 7,-15 15,-15 8,0 15,7 15,15 0,8 -7,14 -15,14zm149 39c-11,0 -19,-8 -19,-18 0,-10 8,-19 19,-19 10,0 18,9 18,19 0,10 -8,18 -18,18z" style="fill: #111111;"/></g></g>        </g></svg>