<svg width="1200" height="1200" xmlns="http://www.w3.org/2000/svg" xmlns:xlink="http://www.w3.org/1999/xlink" version="1.1"><g transform="scale(1.3778765818869163) translate(12.127005683051216, 12.122626410590314)">                        <g fill="#113a5d"><defs xmlns="http://www.w3.org/2000/svg"/><g xmlns="http://www.w3.org/2000/svg"><path class="fil0" d="M117.37 495.18c50.18,3.47 111.52,13.94 164.34,41.73 24.96,13.12 48.21,28.73 67.85,46.54 -25.13,-71.92 -85.75,-122.15 -162.09,-122.96 -48.54,-0.56 -97.51,-1.13 -130.02,-30.47 4.5,42.35 22.25,81.96 48.49,113.56 61.86,74.54 125.44,68.55 211.29,80.8 -22.8,12.75 -53.96,16.93 -78.05,15.9 -60.17,-2.55 -115.1,-34.2 -153.2,-80.1 -63.56,-76.56 -57.96,-138.76 -49.47,-225.01 37.24,90.56 43.64,98.13 151.17,99.36 71.52,0.77 133.77,39.07 169.53,102.71 5.35,-161.06 92.92,-250.84 240.83,-272.14 133.94,-19.28 163.61,-25.9 197.31,-153.22 26.25,112.41 36.34,195.52 -32.91,305.65 -53.93,114.68 -179.17,161.1 -311.52,134.54 125.01,-33.49 203.15,-11.02 289.52,-148.38 35.1,-55.82 53.69,-123.54 48.13,-192.1 -37.95,57.83 -112.77,68.6 -186.87,79.27 -134,19.25 -212.63,97.7 -218.41,245.51 11.92,-21.08 28.62,-43.29 50.9,-65.68 6.26,-6.28 12.98,-12.6 20.15,-18.91 12.79,-29.11 25.35,-62.23 58.81,-123.18 -7.03,35.92 -15.74,67.98 -25.63,96.48 6.88,-5.07 14.06,-10.12 21.58,-15.15 10,-22.92 20.25,-49.36 46.4,-97 -5.99,30.57 -13.49,57.65 -22.02,81.53 11.06,-6.67 22.74,-13.27 35.05,-19.77 8.79,-16.23 19.1,-35.75 40.71,-67.79 -6.31,21.54 -13.4,40.73 -21,57.74 19.73,-9.71 40.98,-19.16 63.81,-28.24 -20.46,16.79 -37.99,30.4 -53.39,41.82 18.58,0.18 38.94,1.74 61.08,4.98 -39.21,6.48 -61.4,7.59 -80.14,8.86 -11.71,8.33 -22.13,15.39 -31.73,21.83 21.7,0.64 45.14,2.66 70.36,6.34 -45.32,7.49 -73.33,9.52 -96.17,11.03 -10.7,7.34 -20.87,14.68 -31.52,23.29 34.07,-4.14 71.7,-6.19 113.1,-5.55 -71.96,21.73 -112.24,28.73 -146.63,35.66l-4.39 4.37c-4.2,4.21 -8.18,8.41 -11.94,12.57 36.26,-4.86 76.72,-7.31 121.58,-6.63 -70.51,21.29 -110.6,28.44 -144.55,35.25 -22.65,32.23 -32.41,61.5 -32.7,84.03 -0.12,10.43 7.6,42.99 10.05,54.42 5.54,25.77 7.23,33.59 15.37,57.86l-24.64 8.25c-8.01,-23.85 -20.1,-93.96 -29.91,-106.64 -7.54,-9.76 -16.13,-19.35 -25.68,-28.49 -47.75,0.32 -105.74,1.14 -106.37,-0.86 24.84,-7.81 53.14,-14.96 82.89,-19.14 -8.03,-6.07 -16.52,-11.78 -25.43,-16.99 -47,7.42 -103.52,16.75 -104.44,14.88 21.78,-10.64 46.61,-21.17 73.17,-29.48 -10.07,-4.02 -22.58,-8.86 -35.85,-13.96 -36.78,5.85 -75.78,12.13 -76.48,10.7 15.08,-7.37 31.89,-14.67 49.82,-20.93 -36.27,-13.9 -70.25,-27.04 -70.14,-28.69z" style="fill: #113a5d; fill-rule: nonzero;"/></g></g>        </g></svg>